<svg width="153" height="153" viewBox="0 0 153 153" fill="none" xmlns="http://www.w3.org/2000/svg">
<path d="M143.438 69.3282H92.8232C92.1897 69.3257 91.5826 69.0741 91.133 68.6277L74.8098 52.3045C74.1457 51.6362 73.3556 51.1063 72.4852 50.7455C71.6148 50.3848 70.6815 50.2005 69.7393 50.2032H38.25C36.3479 50.2032 34.5237 50.9588 33.1787 52.3037C31.8337 53.6487 31.0781 55.4729 31.0781 57.375V143.438C31.0781 145.34 31.8337 147.164 33.1787 148.509C34.5237 149.854 36.3479 150.609 38.25 150.609H143.438C145.34 150.609 147.164 149.854 148.509 148.509C149.854 147.164 150.609 145.34 150.609 143.438V76.5C150.609 74.5979 149.854 72.7737 148.509 71.4287C147.164 70.0838 145.34 69.3282 143.438 69.3282ZM129.094 131.484H52.5938C51.9597 131.484 51.3517 131.233 50.9033 130.784C50.455 130.336 50.2031 129.728 50.2031 129.094C50.2031 128.46 50.455 127.852 50.9033 127.403C51.3517 126.955 51.9597 126.703 52.5938 126.703H129.094C129.728 126.703 130.336 126.955 130.784 127.403C131.233 127.852 131.484 128.46 131.484 129.094C131.484 129.728 131.233 130.336 130.784 130.784C130.336 131.233 129.728 131.484 129.094 131.484ZM129.094 112.359H52.5938C51.9597 112.359 51.3517 112.108 50.9033 111.659C50.455 111.211 50.2031 110.603 50.2031 109.969C50.2031 109.335 50.455 108.727 50.9033 108.278C51.3517 107.83 51.9597 107.578 52.5938 107.578H129.094C129.728 107.578 130.336 107.83 130.784 108.278C131.233 108.727 131.484 109.335 131.484 109.969C131.484 110.603 131.233 111.211 130.784 111.659C130.336 112.108 129.728 112.359 129.094 112.359ZM129.094 93.2344H52.5938C51.9597 93.2344 51.3517 92.9825 50.9033 92.5342C50.455 92.0859 50.2031 91.4778 50.2031 90.8438C50.2031 90.2097 50.455 89.6017 50.9033 89.1533C51.3517 88.705 51.9597 88.4532 52.5938 88.4532H129.094C129.728 88.4532 130.336 88.705 130.784 89.1533C131.233 89.6017 131.484 90.2097 131.484 90.8438C131.484 91.4778 131.233 92.0859 130.784 92.5342C130.336 92.9825 129.728 93.2344 129.094 93.2344Z" fill="#4D6EFF"/>
<path d="M100.406 57.375H83.6719V21.5156C83.6717 20.8816 83.4198 20.2737 82.9714 19.8255L66.237 3.09108C65.7888 2.64272 65.1809 2.39076 64.5469 2.39062H9.5625C7.6604 2.39063 5.83621 3.14623 4.49122 4.49122C3.14623 5.83621 2.39063 7.6604 2.39062 9.5625V112.359C2.39063 114.261 3.14623 116.086 4.49122 117.431C5.83621 118.776 7.6604 119.531 9.5625 119.531H90.8438C94.0127 119.527 97.0509 118.267 99.2917 116.026C101.533 113.785 102.793 110.747 102.797 107.578V59.7656C102.797 59.1316 102.545 58.5235 102.097 58.0752C101.648 57.6269 101.04 57.375 100.406 57.375ZM7.17188 112.359V9.5625C7.17188 8.92847 7.42374 8.3204 7.87207 7.87207C8.3204 7.42374 8.92847 7.17188 9.5625 7.17188H63.5572L78.8906 22.5053V107.578C78.8994 110.173 79.7613 112.693 81.3434 114.75H9.5625C8.92847 114.75 8.3204 114.498 7.87207 114.05C7.42374 113.601 7.17188 112.993 7.17188 112.359ZM98.0156 107.578C98.0156 109.48 97.26 111.304 95.915 112.649C94.57 113.994 92.7458 114.75 90.8438 114.75C88.9417 114.75 87.1175 113.994 85.7725 112.649C84.4275 111.304 83.6719 109.48 83.6719 107.578V62.1562H98.0156V107.578Z" fill="white"/>
<path d="M71.7188 21.5156H64.5469V14.3438C64.5469 13.7097 64.295 13.1017 63.8467 12.6533C63.3983 12.205 62.7903 11.9531 62.1562 11.9531C61.5222 11.9531 60.9142 12.205 60.4658 12.6533C60.0175 13.1017 59.7656 13.7097 59.7656 14.3438V23.9062C59.7656 24.5403 60.0175 25.1483 60.4658 25.5967C60.9142 26.045 61.5222 26.2969 62.1562 26.2969H71.7188C72.3528 26.2969 72.9608 26.045 73.4092 25.5967C73.8575 25.1483 74.1094 24.5403 74.1094 23.9062C74.1094 23.2722 73.8575 22.6642 73.4092 22.2158C72.9608 21.7675 72.3528 21.5156 71.7188 21.5156Z" fill="white"/>
<path d="M62.1562 38.25H23.9062C23.2722 38.25 22.6642 38.5019 22.2158 38.9502C21.7675 39.3985 21.5156 40.0066 21.5156 40.6406C21.5156 41.2747 21.7675 41.8827 22.2158 42.3311C22.6642 42.7794 23.2722 43.0312 23.9062 43.0312H62.1562C62.7903 43.0312 63.3983 42.7794 63.8467 42.3311C64.295 41.8827 64.5469 41.2747 64.5469 40.6406C64.5469 40.0066 64.295 39.3985 63.8467 38.9502C63.3983 38.5019 62.7903 38.25 62.1562 38.25Z" fill="white"/>
<path d="M62.1562 57.375H23.9062C23.2722 57.375 22.6642 57.6269 22.2158 58.0752C21.7675 58.5235 21.5156 59.1316 21.5156 59.7656C21.5156 60.3997 21.7675 61.0077 22.2158 61.4561C22.6642 61.9044 23.2722 62.1562 23.9062 62.1562H62.1562C62.7903 62.1562 63.3983 61.9044 63.8467 61.4561C64.295 61.0077 64.5469 60.3997 64.5469 59.7656C64.5469 59.1316 64.295 58.5235 63.8467 58.0752C63.3983 57.6269 62.7903 57.375 62.1562 57.375Z" fill="white"/>
<path d="M62.1562 76.5H23.9062C23.2722 76.5 22.6642 76.7519 22.2158 77.2002C21.7675 77.6485 21.5156 78.2566 21.5156 78.8906C21.5156 79.5247 21.7675 80.1327 22.2158 80.5811C22.6642 81.0294 23.2722 81.2812 23.9062 81.2812H62.1562C62.7903 81.2812 63.3983 81.0294 63.8467 80.5811C64.295 80.1327 64.5469 79.5247 64.5469 78.8906C64.5469 78.2566 64.295 77.6485 63.8467 77.2002C63.3983 76.7519 62.7903 76.5 62.1562 76.5Z" fill="white"/>
<path d="M62.1562 95.625H23.9062C23.2722 95.625 22.6642 95.8769 22.2158 96.3252C21.7675 96.7735 21.5156 97.3816 21.5156 98.0156C21.5156 98.6497 21.7675 99.2577 22.2158 99.7061C22.6642 100.154 23.2722 100.406 23.9062 100.406H62.1562C62.7903 100.406 63.3983 100.154 63.8467 99.7061C64.295 99.2577 64.5469 98.6497 64.5469 98.0156C64.5469 97.3816 64.295 96.7735 63.8467 96.3252C63.3983 95.8769 62.7903 95.625 62.1562 95.625Z" fill="white"/>
</svg>
