<svg width="153" height="153" viewBox="0 0 153 153" fill="none" xmlns="http://www.w3.org/2000/svg">
<path d="M117.141 126.703C117.141 127.175 117.281 127.637 117.542 128.03L131.886 149.546C132.104 149.873 132.4 150.141 132.747 150.327C133.094 150.513 133.481 150.61 133.875 150.61C134.269 150.61 134.656 150.513 135.003 150.327C135.35 150.141 135.646 149.873 135.864 149.546L150.208 128.03C150.469 127.637 150.609 127.175 150.609 126.703V64.5469H117.141V126.703Z" fill="#353535"/>
<path d="M112.359 126.703V47.8125C112.363 44.6435 113.624 41.6054 115.865 39.3646C118.105 37.1237 121.144 35.8632 124.313 35.8594H135.826C135.333 34.4659 134.422 33.2586 133.217 32.4027C132.012 31.5469 130.572 31.0843 129.094 31.0781H52.5938C50.6917 31.0781 48.8675 31.8337 47.5225 33.1787C46.1775 34.5237 45.4219 36.3479 45.4219 38.25V143.438C45.4219 145.34 46.1775 147.164 47.5225 148.509C48.8675 149.854 50.6917 150.609 52.5938 150.609H126.849L113.555 130.681C112.771 129.503 112.355 128.118 112.359 126.703ZM57.375 50.2031H100.406C101.04 50.2031 101.648 50.455 102.097 50.9033C102.545 51.3517 102.797 51.9597 102.797 52.5938C102.797 53.2278 102.545 53.8358 102.097 54.2842C101.648 54.7325 101.04 54.9844 100.406 54.9844H57.375C56.741 54.9844 56.1329 54.7325 55.6846 54.2842C55.2362 53.8358 54.9844 53.2278 54.9844 52.5938C54.9844 51.9597 55.2362 51.3517 55.6846 50.9033C56.1329 50.455 56.741 50.2031 57.375 50.2031ZM57.375 69.3281H100.406C101.04 69.3281 101.648 69.58 102.097 70.0283C102.545 70.4767 102.797 71.0847 102.797 71.7188C102.797 72.3528 102.545 72.9608 102.097 73.4092C101.648 73.8575 101.04 74.1094 100.406 74.1094H57.375C56.741 74.1094 56.1329 73.8575 55.6846 73.4092C55.2362 72.9608 54.9844 72.3528 54.9844 71.7188C54.9844 71.0847 55.2362 70.4767 55.6846 70.0283C56.1329 69.58 56.741 69.3281 57.375 69.3281ZM57.375 88.4531H100.406C101.04 88.4531 101.648 88.705 102.097 89.1533C102.545 89.6017 102.797 90.2097 102.797 90.8438C102.797 91.4778 102.545 92.0858 102.097 92.5342C101.648 92.9825 101.04 93.2344 100.406 93.2344H57.375C56.741 93.2344 56.1329 92.9825 55.6846 92.5342C55.2362 92.0858 54.9844 91.4778 54.9844 90.8438C54.9844 90.2097 55.2362 89.6017 55.6846 89.1533C56.1329 88.705 56.741 88.4531 57.375 88.4531ZM59.7656 107.578H100.406C101.04 107.578 101.648 107.83 102.097 108.278C102.545 108.727 102.797 109.335 102.797 109.969C102.797 110.603 102.545 111.211 102.097 111.659C101.648 112.108 101.04 112.359 100.406 112.359H62.1563C61.5222 112.359 60.9142 112.108 60.4658 111.659C60.0175 111.211 59.7656 110.603 59.7656 109.969C59.7656 108.649 58.446 107.578 59.7656 107.578ZM105.188 131.484H57.375C56.741 131.484 56.1329 131.233 55.6846 130.784C55.2362 130.336 54.9844 129.728 54.9844 129.094C54.9844 128.46 55.2362 127.852 55.6846 127.403C56.1329 126.955 56.741 126.703 57.375 126.703H105.188C105.822 126.703 106.43 126.955 106.878 127.403C107.326 127.852 107.578 128.46 107.578 129.094C107.578 129.728 107.326 130.336 106.878 130.784C106.43 131.233 105.822 131.484 105.188 131.484Z" fill="#353535"/>
<path d="M143.438 40.6406H124.312C122.41 40.6406 120.586 41.3962 119.241 42.7412C117.896 44.0862 117.141 45.9104 117.141 47.8125V59.7656H150.609V47.8125C150.609 45.9104 149.854 44.0862 148.509 42.7412C147.164 41.3962 145.34 40.6406 143.438 40.6406Z" fill="#353535"/>
<path d="M119.543 117.141C109.811 117.141 109.345 102.797 96.581 102.797C83.8534 102.797 83.3537 117.141 73.631 117.141C63.9084 117.141 63.4398 102.797 50.681 102.797C37.9223 102.797 37.5111 117.141 27.731 117.141C20.8389 117.141 19.1248 110.667 13.7435 106.117L61.0492 98.2284C61.5087 98.1519 61.9359 97.9429 62.2782 97.6269C62.6205 97.3109 62.8631 96.9018 62.976 96.4498L72.1273 59.8445L105.46 26.5192C106.136 25.8447 106.672 25.0435 107.037 24.1615C107.403 23.2796 107.591 22.3342 107.591 21.3794C107.591 20.4246 107.403 19.4792 107.037 18.5972C106.672 17.7153 106.136 16.9141 105.46 16.2395L93.7458 4.52549C92.3812 3.16491 90.5329 2.40088 88.6059 2.40088C86.679 2.40088 84.8306 3.16491 83.4661 4.52549L50.1216 37.8436L13.514 46.9973C13.064 47.1093 12.6562 47.3497 12.3404 47.6892C12.0246 48.0288 11.8144 48.4529 11.7354 48.9098L2.42388 104.793C2.36658 105.136 2.38459 105.486 2.47665 105.821C2.56871 106.156 2.73261 106.467 2.95695 106.732C3.18129 106.997 3.46068 107.21 3.77569 107.356C4.09071 107.502 4.43378 107.578 4.78104 107.578C14.4989 107.578 14.9723 121.922 27.731 121.922C40.4898 121.922 40.8986 107.578 50.681 107.578C60.4013 107.578 60.8723 121.922 73.631 121.922C86.3229 121.922 86.9086 107.578 96.581 107.578C106.306 107.578 106.779 121.922 119.543 121.922C120.177 121.922 120.785 121.67 121.233 121.222C121.682 120.773 121.934 120.165 121.934 119.531C121.934 118.897 121.682 118.289 121.233 117.841C120.785 117.393 120.177 117.141 119.543 117.141ZM86.8345 7.88909C87.3018 7.4237 87.9344 7.1624 88.594 7.1624C89.2535 7.1624 89.8861 7.4237 90.3535 7.88909L102.068 19.6151C102.298 19.846 102.482 20.1201 102.607 20.4218C102.732 20.7235 102.796 21.0469 102.796 21.3734C102.796 21.7 102.732 22.0233 102.607 22.325C102.482 22.6267 102.298 22.9008 102.068 23.1317L69.9686 55.2474L54.7236 40.0047L86.8345 7.88909ZM16.1939 51.255L50.6189 42.6488L67.3293 59.3592L58.7231 93.7842L11.7473 101.602L27.7932 85.5557C30.0328 86.9626 32.7121 87.4953 35.3195 87.0518C37.9269 86.6084 40.2796 85.22 41.9281 83.1518C43.5767 81.0836 44.4056 78.4806 44.2566 75.84C44.1075 73.1994 42.9909 70.7062 41.1201 68.8367C39.2492 66.9672 36.7553 65.8523 34.1145 65.7051C31.4738 65.558 28.8714 66.3887 26.8044 68.0387C24.7374 69.6888 23.3506 72.0424 22.909 74.6501C22.4674 77.2578 23.002 79.9368 24.4105 82.1754L8.36697 98.2212L16.1939 51.255ZM29.2873 80.698C28.4527 79.8617 27.8846 78.7967 27.655 77.6377C27.4253 76.4787 27.5443 75.2776 27.997 74.1862C28.4497 73.0948 29.2158 72.1621 30.1984 71.5059C31.1809 70.8497 32.336 70.4995 33.5175 70.4995C34.6991 70.4995 35.8541 70.8497 36.8367 71.5059C37.8193 72.1621 38.5854 73.0948 39.038 74.1862C39.4907 75.2776 39.6098 76.4787 39.3801 77.6377C39.1505 78.7967 38.5824 79.8617 37.7478 80.698C36.6091 81.7879 35.0937 82.3962 33.5175 82.3962C31.9413 82.3962 30.426 81.7879 29.2873 80.698Z" fill="white"/>
</svg>
