<svg width="278" height="40" viewBox="0 0 278 40" fill="none" xmlns="http://www.w3.org/2000/svg">
<path d="M25.346 9.71562H32.1045L25.346 30.8372H19.4317L16.0525 19.5585L12.6728 30.8372H6.75897L0 9.71562H6.75897L9.80043 21.0368L13.0954 9.71562H19.0091L22.3046 21.0368L25.346 9.71562ZM39.4547 22.811C40.1871 24.7822 41.8765 25.7681 44.5238 25.7681C46.2416 25.7681 47.5937 25.2333 48.5791 24.1631L53.6482 27.0778C51.5642 29.9781 48.4948 31.4284 44.4395 31.4284C40.8911 31.4284 38.0537 30.3727 35.9273 28.2603C33.8013 26.1483 32.7381 23.487 32.7381 20.2764C32.7381 17.0943 33.7874 14.44 35.8854 12.314C37.9834 10.1876 40.6796 9.1244 43.9745 9.1244C47.0444 9.1244 49.5999 10.1876 51.6415 12.314C53.6836 14.44 54.7044 17.0943 54.7044 20.2764C54.7044 21.1775 54.6201 22.0227 54.451 22.811H39.4547ZM39.328 18.0801H48.41C47.7908 15.8549 46.298 14.7428 43.9326 14.7428C41.4823 14.7428 39.9476 15.8549 39.328 18.0801ZM58.2952 30.8372V0H64.6316V30.8372H58.2952ZM75.1285 6.73752C74.3821 7.48392 73.4881 7.85711 72.4463 7.85711C71.404 7.85711 70.51 7.48392 69.7636 6.73752C69.0177 5.99162 68.6445 5.09755 68.6445 4.05529C68.6445 3.01352 69.0177 2.11945 69.7636 1.37305C70.51 0.626654 71.404 0.253459 72.4463 0.253459C73.4881 0.253459 74.3821 0.626654 75.1285 1.37305C75.8749 2.11945 76.2481 3.01352 76.2481 4.05529C76.2481 5.09755 75.8749 5.99162 75.1285 6.73752ZM69.2781 30.8372V9.71562H75.6145V30.8372H69.2781ZM95.7637 9.71562H101.931V29.781C101.931 33.1043 100.847 35.6175 98.6784 37.3213C96.5101 39.0251 93.8772 39.8773 90.7794 39.8773C86.0201 39.8773 82.6828 38.1735 80.7679 34.7658L86.1748 31.64C87.1322 33.4142 88.7378 34.3013 90.9904 34.3013C92.4832 34.3013 93.6517 33.9141 94.4964 33.1393C95.3416 32.3649 95.7637 31.2453 95.7637 29.781V27.8382C94.2993 29.6687 92.2437 30.5838 89.5964 30.5838C86.6393 30.5838 84.1681 29.5345 82.1829 27.4365C80.1976 25.3385 79.2048 22.811 79.2048 19.8543C79.2048 16.8972 80.1976 14.3696 82.1829 12.2716C84.1681 10.1736 86.6393 9.1244 89.5964 9.1244C92.2437 9.1244 94.2993 10.0399 95.7637 11.8705V9.71562ZM86.9776 23.4027C87.935 24.3038 89.1599 24.7543 90.6527 24.7543C92.145 24.7543 93.3703 24.3038 94.3278 23.4027C95.2852 22.5011 95.7637 21.3187 95.7637 19.8543C95.7637 18.3895 95.2852 17.207 94.3278 16.306C93.3703 15.4044 92.145 14.9539 90.6527 14.9539C89.1599 14.9539 87.935 15.4044 86.9776 16.306C86.0201 17.207 85.5411 18.3895 85.5411 19.8543C85.5411 21.3187 86.0201 22.5011 86.9776 23.4027ZM118.955 9.1244C121.208 9.1244 123.088 9.89872 124.595 11.4479C126.101 12.9966 126.855 15.137 126.855 17.8686V30.8372H120.518V18.7981C120.518 17.5588 120.173 16.6083 119.483 15.9467C118.794 15.2847 117.914 14.9539 116.843 14.9539C115.632 14.9539 114.675 15.3201 113.971 16.0525C113.267 16.7844 112.915 17.8686 112.915 19.305V30.8372H106.578V1.26728H112.915V11.7014C114.182 9.98354 116.196 9.1244 118.955 9.1244ZM143.583 15.7991H139.232V23.276C139.232 24.1207 139.57 24.6555 140.246 24.881C140.922 25.1065 142.034 25.1769 143.583 25.0921V30.8372C139.556 31.2598 136.768 30.8726 135.219 29.6757C133.67 28.4788 132.895 26.3454 132.895 23.276V15.7991H129.516V9.71562H132.895V5.70275L139.232 3.80183V9.71562H143.583V15.7991ZM165.422 15.8834C165.422 16.306 165.782 16.6507 166.5 16.9181C167.218 17.1856 168.084 17.4535 169.098 17.7209C170.111 17.9883 171.125 18.3336 172.139 18.7557C173.153 19.1783 174.019 19.8753 174.737 20.8467C175.455 21.8186 175.814 23.0365 175.814 24.5008C175.814 26.7819 174.969 28.5067 173.28 29.6757C171.59 30.8442 169.506 31.4284 167.028 31.4284C162.578 31.4284 159.551 29.753 157.946 26.4018L163.437 23.276C164.001 24.9374 165.197 25.7681 167.028 25.7681C168.549 25.7681 169.309 25.3316 169.309 24.4584C169.309 24.0364 168.95 23.6841 168.232 23.4027C167.513 23.1208 166.648 22.8464 165.634 22.579C164.62 22.311 163.606 21.9593 162.593 21.5227C161.579 21.0862 160.713 20.4032 159.995 19.4741C159.276 18.5446 158.917 17.4041 158.917 16.0525C158.917 13.8557 159.713 12.1519 161.304 10.941C162.895 9.73009 164.86 9.1244 167.197 9.1244C168.943 9.1244 170.534 9.51155 171.97 10.2864C173.406 11.0607 174.561 12.1798 175.434 13.6447L170.027 16.5594C169.351 15.3201 168.408 14.7004 167.197 14.7004C166.014 14.7004 165.422 15.0946 165.422 15.8834ZM190.726 15.7991H186.375V23.276C186.375 24.1207 186.713 24.6555 187.389 24.881C188.065 25.1065 189.177 25.1769 190.726 25.0921V30.8372C186.699 31.2598 183.911 30.8726 182.362 29.6757C180.813 28.4788 180.039 26.3454 180.039 23.276V15.7991H176.659V9.71562H180.039V5.70275L186.375 3.80183V9.71562H190.726V15.7991ZM208.384 9.71562H214.72V30.8372H208.384V28.852C207.116 30.5698 205.103 31.4284 202.343 31.4284C200.09 31.4284 198.21 30.6541 196.704 29.1054C195.197 27.5563 194.444 25.4159 194.444 22.6843V9.71562H200.78V21.7552C200.78 22.9941 201.125 23.9445 201.815 24.6066C202.505 25.2682 203.385 25.599 204.455 25.599C205.666 25.599 206.623 25.2333 207.327 24.5008C208.032 23.7684 208.384 22.6842 208.384 21.2483V9.71562ZM234.701 1.26728H241.037V30.8372H234.701V28.852C233.208 30.5698 231.11 31.4284 228.407 31.4284C225.619 31.4284 223.239 30.3513 221.268 28.1969C219.297 26.0425 218.311 23.4027 218.311 20.2764C218.311 17.1506 219.297 14.5103 221.268 12.356C223.239 10.2016 225.619 9.1244 228.407 9.1244C231.11 9.1244 233.208 9.98354 234.701 11.7014V1.26728ZM226.041 24.0364C226.971 24.9654 228.182 25.4304 229.674 25.4304C231.167 25.4304 232.378 24.9654 233.307 24.0364C234.236 23.1068 234.701 21.8535 234.701 20.2764C234.701 18.6993 234.236 17.4465 233.307 16.517C232.378 15.5875 231.167 15.123 229.674 15.123C228.182 15.123 226.971 15.5875 226.041 16.517C225.112 17.4465 224.647 18.6993 224.647 20.2764C224.647 21.8535 225.112 23.1068 226.041 24.0364ZM251.535 6.73752C250.788 7.48392 249.894 7.85711 248.853 7.85711C247.81 7.85711 246.916 7.48392 246.17 6.73752C245.424 5.99162 245.051 5.09755 245.051 4.05529C245.051 3.01352 245.424 2.11945 246.17 1.37305C246.916 0.626654 247.81 0.253459 248.853 0.253459C249.894 0.253459 250.788 0.626654 251.535 1.37305C252.281 2.11945 252.654 3.01352 252.654 4.05529C252.654 5.09755 252.281 5.99162 251.535 6.73752ZM245.684 30.8372V9.71562H252.021V30.8372H245.684ZM274.747 28.1969C272.579 30.3513 269.931 31.4284 266.806 31.4284C263.679 31.4284 261.032 30.3513 258.864 28.1969C256.695 26.0425 255.611 23.4027 255.611 20.2764C255.611 17.1506 256.695 14.5103 258.864 12.356C261.032 10.2016 263.679 9.1244 266.806 9.1244C269.931 9.1244 272.579 10.2016 274.747 12.356C276.915 14.5103 278 17.1506 278 20.2764C278 23.4027 276.915 26.0425 274.747 28.1969ZM263.341 23.8672C264.271 24.7967 265.426 25.2612 266.806 25.2612C268.186 25.2612 269.34 24.7967 270.269 23.8672C271.199 22.9377 271.663 21.7408 271.663 20.2764C271.663 18.8121 271.199 17.6151 270.269 16.6861C269.34 15.7566 268.186 15.2921 266.806 15.2921C265.426 15.2921 264.271 15.7566 263.341 16.6861C262.412 17.6151 261.947 18.8121 261.947 20.2764C261.947 21.7408 262.412 22.9377 263.341 23.8672Z" fill="white"/>
<path d="M154.017 30.2459C153.229 31.0343 152.285 31.4284 151.186 31.4284C150.088 31.4284 149.145 31.0343 148.357 30.2459C147.568 29.4571 147.174 28.5137 147.174 27.4155C147.174 26.3174 147.568 25.3739 148.357 24.5851C149.145 23.7968 150.088 23.4026 151.186 23.4026C152.285 23.4026 153.229 23.7968 154.017 24.5851C154.806 25.3739 155.2 26.3174 155.2 27.4155C155.2 28.5137 154.806 29.4571 154.017 30.2459Z" fill="#FFC800"/>
</svg>
