<svg width="186" height="27" viewBox="0 0 186 27" fill="none" xmlns="http://www.w3.org/2000/svg">
<path d="M17.5434 6.45035H22.0305L17.5434 20.4733H13.6169L11.3733 12.9852L9.12947 20.4733H5.20321L0.71582 6.45035H5.20321L7.22248 13.9667L9.41003 6.45035H13.3363L15.5242 13.9667L17.5434 6.45035ZM26.9104 15.1446C27.3967 16.4533 28.5183 17.1079 30.2759 17.1079C31.4164 17.1079 32.314 16.7528 32.9682 16.0422L36.3337 17.9774C34.9501 19.9029 32.9123 20.8658 30.2199 20.8658C27.8641 20.8658 25.9803 20.1649 24.5685 18.7624C23.1571 17.3603 22.4512 15.5934 22.4512 13.4618C22.4512 11.3491 23.1478 9.58692 24.5407 8.17548C25.9336 6.76371 27.7236 6.05783 29.9112 6.05783C31.9493 6.05783 33.646 6.76371 35.0014 8.17548C36.3572 9.58692 37.035 11.3491 37.035 13.4618C37.035 14.0601 36.979 14.6212 36.8667 15.1446H26.9104ZM26.8263 12.0037H32.856C32.4449 10.5263 31.4538 9.78799 29.8834 9.78799C28.2566 9.78799 27.2377 10.5263 26.8263 12.0037ZM39.4189 20.4733V0H43.6258V20.4733H39.4189ZM50.5948 4.47315C50.0993 4.96869 49.5057 5.21646 48.8141 5.21646C48.1221 5.21646 47.5285 4.96869 47.0329 4.47315C46.5377 3.97793 46.29 3.38434 46.29 2.69237C46.29 2.00073 46.5377 1.40713 47.0329 0.91159C47.5285 0.416046 48.1221 0.168276 48.8141 0.168276C49.5057 0.168276 50.0993 0.416046 50.5948 0.91159C51.0904 1.40713 51.3382 2.00073 51.3382 2.69237C51.3382 3.38434 51.0904 3.97793 50.5948 4.47315ZM46.7106 20.4733V6.45035H50.9175V20.4733H46.7106ZM64.2948 6.45035H68.3897V19.7721C68.3897 21.9785 67.6699 23.647 66.23 24.7782C64.7904 25.9094 63.0424 26.4752 60.9857 26.4752C57.8259 26.4752 55.6102 25.344 54.3389 23.0816L57.9286 21.0063C58.5643 22.1842 59.6302 22.7732 61.1258 22.7732C62.1169 22.7732 62.8927 22.5161 63.4535 22.0017C64.0146 21.4876 64.2948 20.7443 64.2948 19.7721V18.4822C63.3226 19.6975 61.9579 20.3051 60.2003 20.3051C58.237 20.3051 56.5963 19.6084 55.2783 18.2156C53.9603 16.8227 53.3011 15.1446 53.3011 13.1816C53.3011 11.2183 53.9603 9.54021 55.2783 8.14732C56.5963 6.75444 58.237 6.05783 60.2003 6.05783C61.9579 6.05783 63.3226 6.66566 64.2948 7.881V6.45035ZM58.4616 15.5374C59.0973 16.1357 59.9105 16.4348 60.9016 16.4348C61.8923 16.4348 62.7058 16.1357 63.3415 15.5374C63.9772 14.9389 64.2948 14.1538 64.2948 13.1816C64.2948 12.2091 63.9772 11.424 63.3415 10.8258C62.7058 10.2272 61.8923 9.9281 60.9016 9.9281C59.9105 9.9281 59.0973 10.2272 58.4616 10.8258C57.8259 11.424 57.5079 12.2091 57.5079 13.1816C57.5079 14.1538 57.8259 14.9389 58.4616 15.5374ZM79.6921 6.05783C81.188 6.05783 82.4359 6.57192 83.4362 7.60044C84.4366 8.62862 84.9368 10.0497 84.9368 11.8632V20.4733H80.7299V12.4804C80.7299 11.6575 80.5007 11.0265 80.0426 10.5873C79.5848 10.1477 79.0005 9.9281 78.29 9.9281C77.486 9.9281 76.8504 10.1712 76.3827 10.6575C75.9153 11.1434 75.6817 11.8632 75.6817 12.8169V20.4733H71.4749V0.84137H75.6817V7.76871C76.5231 6.62823 77.86 6.05783 79.6921 6.05783ZM96.0428 10.4892H93.154V15.4533C93.154 16.0141 93.3786 16.3692 93.8271 16.5189C94.2759 16.6686 95.0146 16.7153 96.0428 16.659V20.4733C93.3693 20.7539 91.5183 20.4968 90.4898 19.7022C89.4616 18.9075 88.9472 17.4911 88.9472 15.4533V10.4892H86.7036V6.45035H88.9472V3.78614L93.154 2.52409V6.45035H96.0428V10.4892ZM110.542 10.5452C110.542 10.8258 110.781 11.0547 111.258 11.2322C111.735 11.4098 112.309 11.5876 112.982 11.7652C113.655 11.9427 114.329 12.172 115.002 12.4522C115.675 12.7328 116.25 13.1955 116.726 13.8405C117.203 14.4857 117.442 15.2943 117.442 16.2665C117.442 17.7809 116.881 18.9261 115.759 19.7022C114.637 20.478 113.254 20.8658 111.608 20.8658C108.654 20.8658 106.644 19.7535 105.578 17.5285L109.224 15.4533C109.598 16.5563 110.393 17.1079 111.608 17.1079C112.618 17.1079 113.123 16.818 113.123 16.2383C113.123 15.9581 112.884 15.7242 112.408 15.5374C111.931 15.3503 111.356 15.1681 110.683 14.9905C110.01 14.8126 109.337 14.5791 108.664 14.2893C107.99 13.9994 107.415 13.546 106.939 12.9292C106.462 12.3121 106.224 11.5549 106.224 10.6575C106.224 9.19903 106.752 8.06783 107.808 7.26389C108.864 6.45996 110.169 6.05783 111.72 6.05783C112.88 6.05783 113.936 6.31487 114.89 6.8293C115.843 7.34339 116.61 8.08638 117.189 9.05891L113.599 10.9941C113.151 10.1712 112.525 9.75984 111.72 9.75984C110.935 9.75984 110.542 10.0215 110.542 10.5452ZM127.342 10.4892H124.453V15.4533C124.453 16.0141 124.678 16.3692 125.126 16.5189C125.575 16.6686 126.314 16.7153 127.342 16.659V20.4733C124.668 20.7539 122.817 20.4968 121.789 19.7022C120.761 18.9075 120.246 17.4911 120.246 15.4533V10.4892H118.003V6.45035H120.246V3.78614L124.453 2.52409V6.45035H127.342V10.4892ZM139.065 6.45035H143.272V20.4733H139.065V19.1553C138.224 20.2958 136.887 20.8658 135.055 20.8658C133.559 20.8658 132.311 20.3517 131.311 19.3236C130.31 18.295 129.81 16.874 129.81 15.0604V6.45035H134.017V14.4437C134.017 15.2661 134.246 15.8972 134.704 16.3367C135.162 16.7759 135.746 16.9956 136.457 16.9956C137.261 16.9956 137.896 16.7528 138.364 16.2665C138.831 15.7802 139.065 15.0604 139.065 14.1071V6.45035ZM156.538 0.84137H160.744V20.4733H156.538V19.1553C155.546 20.2958 154.154 20.8658 152.359 20.8658C150.508 20.8658 148.928 20.1507 147.619 18.7204C146.31 17.29 145.656 15.5374 145.656 13.4618C145.656 11.3866 146.31 9.63363 147.619 8.20331C148.928 6.77299 150.508 6.05783 152.359 6.05783C154.154 6.05783 155.546 6.62823 156.538 7.76871V0.84137ZM150.788 15.9581C151.405 16.5749 152.209 16.8836 153.2 16.8836C154.191 16.8836 154.995 16.5749 155.612 15.9581C156.229 15.341 156.538 14.5089 156.538 13.4618C156.538 12.4148 156.229 11.583 155.612 10.9659C154.995 10.3488 154.191 10.0404 153.2 10.0404C152.209 10.0404 151.405 10.3488 150.788 10.9659C150.171 11.583 149.863 12.4148 149.863 13.4618C149.863 14.5089 150.171 15.341 150.788 15.9581ZM167.714 4.47315C167.218 4.96869 166.625 5.21646 165.933 5.21646C165.241 5.21646 164.647 4.96869 164.152 4.47315C163.657 3.97793 163.409 3.38434 163.409 2.69237C163.409 2.00073 163.657 1.40713 164.152 0.91159C164.647 0.416046 165.241 0.168276 165.933 0.168276C166.625 0.168276 167.218 0.416046 167.714 0.91159C168.209 1.40713 168.457 2.00073 168.457 2.69237C168.457 3.38434 168.209 3.97793 167.714 4.47315ZM163.83 20.4733V6.45035H168.036V20.4733H163.83ZM183.125 18.7204C181.685 20.1507 179.927 20.8658 177.852 20.8658C175.777 20.8658 174.019 20.1507 172.579 18.7204C171.14 17.29 170.42 15.5374 170.42 13.4618C170.42 11.3866 171.14 9.63363 172.579 8.20331C174.019 6.77299 175.777 6.05783 177.852 6.05783C179.927 6.05783 181.685 6.77299 183.125 8.20331C184.564 9.63363 185.284 11.3866 185.284 13.4618C185.284 15.5374 184.564 17.29 183.125 18.7204ZM175.552 15.8458C176.17 16.4629 176.936 16.7713 177.852 16.7713C178.768 16.7713 179.535 16.4629 180.152 15.8458C180.769 15.2287 181.077 14.434 181.077 13.4618C181.077 12.4896 180.769 11.695 180.152 11.0782C179.535 10.4611 178.768 10.1527 177.852 10.1527C176.936 10.1527 176.17 10.4611 175.552 11.0782C174.935 11.695 174.627 12.4896 174.627 13.4618C174.627 14.434 174.935 15.2287 175.552 15.8458Z" fill="white"/>
<path d="M102.97 20.081C102.447 20.6043 101.82 20.866 101.091 20.866C100.362 20.866 99.7355 20.6043 99.2121 20.081C98.6884 19.5573 98.4268 18.9309 98.4268 18.2018C98.4268 17.4727 98.6884 16.8464 99.2121 16.3227C99.7355 15.7993 100.362 15.5376 101.091 15.5376C101.82 15.5376 102.447 15.7993 102.97 16.3227C103.494 16.8464 103.756 17.4727 103.756 18.2018C103.756 18.9309 103.494 19.5573 102.97 20.081Z" fill="#FFC800"/>
</svg>
