<svg width="182" height="35" viewBox="0 0 182 35" fill="none" xmlns="http://www.w3.org/2000/svg">
<path d="M9.29997 7.22003H5.65997V3.62003H3.97997V7.22003H0.339966V8.80003H3.97997V12.38H5.65997V8.80003H9.29997V7.22003Z" fill="white"/>
<path d="M16.57 6.88003L20.23 2.36003V1.00003H10.99V2.74003H17.73L14.21 7.06003V8.46003H15.33C17.73 8.46003 18.79 9.42003 18.79 10.9C18.79 12.42 17.59 13.38 15.49 13.38C13.77 13.38 12.21 12.76 11.27 11.88L10.35 13.46C11.53 14.52 13.49 15.16 15.49 15.16C19.05 15.16 20.79 13.24 20.79 10.88C20.79 8.72003 19.37 7.14003 16.57 6.88003Z" fill="white"/>
<path d="M31.2153 7.66003C32.4953 7.06003 33.1953 6.02003 33.1953 4.64003C33.1953 2.30003 31.1553 0.840027 28.1153 0.840027C25.0953 0.840027 23.0753 2.30003 23.0753 4.64003C23.0753 6.02003 23.7553 7.06003 25.0353 7.66003C23.4553 8.26003 22.5753 9.44003 22.5753 11.04C22.5753 13.58 24.7153 15.16 28.1153 15.16C31.5353 15.16 33.6953 13.58 33.6953 11.04C33.6953 9.44003 32.8153 8.28003 31.2153 7.66003ZM28.1153 2.46003C29.9953 2.46003 31.2353 3.32003 31.2353 4.72003C31.2353 6.10003 30.0553 6.96003 28.1153 6.96003C26.1953 6.96003 25.0553 6.10003 25.0553 4.72003C25.0553 3.32003 26.2353 2.46003 28.1153 2.46003ZM28.1153 13.54C25.8953 13.54 24.5753 12.56 24.5753 10.98C24.5753 9.44003 25.8953 8.48003 28.1153 8.48003C30.3353 8.48003 31.6953 9.44003 31.6953 10.98C31.6953 12.56 30.3353 13.54 28.1153 13.54Z" fill="white"/>
<path d="M41.2464 15.16C44.5064 15.16 46.9464 12.56 46.9464 8.00003C46.9464 3.44003 44.5064 0.840027 41.2464 0.840027C37.9664 0.840027 35.5264 3.44003 35.5264 8.00003C35.5264 12.56 37.9664 15.16 41.2464 15.16ZM41.2464 13.38C39.0464 13.38 37.5264 11.58 37.5264 8.00003C37.5264 4.42003 39.0464 2.62003 41.2464 2.62003C43.4264 2.62003 44.9464 4.42003 44.9464 8.00003C44.9464 11.58 43.4264 13.38 41.2464 13.38Z" fill="white"/>
<path d="M58.7773 0.840027C55.9973 0.840027 53.8373 2.56003 53.8373 5.26003C53.8373 7.84003 55.8373 9.50003 58.6173 9.50003C60.3573 9.50003 61.8373 8.88003 62.6573 7.66003V8.16003C62.6573 11.66 60.8573 13.44 58.0173 13.44C56.9973 13.44 56.0573 13.26 55.3173 12.78L54.5573 14.34C55.4573 14.9 56.7173 15.16 58.0373 15.16C61.9573 15.16 64.6573 12.6 64.6573 7.82003C64.6573 3.36003 62.5373 0.840027 58.7773 0.840027ZM58.9573 7.88003C56.9973 7.88003 55.7773 6.82003 55.7773 5.18003C55.7773 3.52003 57.0373 2.46003 58.8573 2.46003C61.0373 2.46003 62.1973 3.72003 62.1973 5.16003C62.1973 6.70003 60.8773 7.88003 58.9573 7.88003Z" fill="white"/>
<path d="M71.1211 0.840027C68.3411 0.840027 66.1811 2.56003 66.1811 5.26003C66.1811 7.84003 68.1811 9.50003 70.9611 9.50003C72.7011 9.50003 74.1811 8.88003 75.0011 7.66003V8.16003C75.0011 11.66 73.2011 13.44 70.3611 13.44C69.3411 13.44 68.4011 13.26 67.6611 12.78L66.9011 14.34C67.8011 14.9 69.0611 15.16 70.3811 15.16C74.3011 15.16 77.0011 12.6 77.0011 7.82003C77.0011 3.36003 74.8811 0.840027 71.1211 0.840027ZM71.3011 7.88003C69.3411 7.88003 68.1211 6.82003 68.1211 5.18003C68.1211 3.52003 69.3811 2.46003 71.2011 2.46003C73.3811 2.46003 74.5411 3.72003 74.5411 5.16003C74.5411 6.70003 73.2211 7.88003 71.3011 7.88003Z" fill="white"/>
<path d="M86.9559 13.26L91.2359 9.14003C93.1359 7.32003 93.5359 6.10003 93.5359 4.74003C93.5359 2.34003 91.6559 0.840027 88.7359 0.840027C86.5559 0.840027 84.6959 1.62003 83.6159 2.96003L84.9759 4.14003C85.8359 3.10003 87.0559 2.62003 88.5559 2.62003C90.5159 2.62003 91.5359 3.50003 91.5359 4.94003C91.5359 5.82003 91.2559 6.70003 89.7759 8.14003L84.0759 13.64V15H94.1359V13.26H86.9559Z" fill="white"/>
<path d="M101.762 6.50003C100.022 6.50003 98.5417 7.14003 97.7417 8.34003C97.7217 8.16003 97.7217 8.00003 97.7217 7.84003C97.7217 4.34003 99.5417 2.56003 102.382 2.56003C103.382 2.56003 104.342 2.74003 105.062 3.22003L105.822 1.66003C104.922 1.10003 103.662 0.840027 102.342 0.840027C98.4217 0.840027 95.7217 3.40003 95.7217 8.18003C95.7217 12.64 97.8417 15.16 101.602 15.16C104.382 15.16 106.562 13.44 106.562 10.74C106.562 8.16003 104.542 6.50003 101.762 6.50003ZM101.522 13.54C99.3617 13.54 98.2017 12.28 98.2017 10.84C98.2017 9.30003 99.5217 8.12003 101.422 8.12003C103.382 8.12003 104.622 9.18003 104.622 10.82C104.622 12.48 103.342 13.54 101.522 13.54Z" fill="white"/>
<path d="M112.605 0.840027C109.825 0.840027 107.665 2.56003 107.665 5.26003C107.665 7.84003 109.665 9.50003 112.445 9.50003C114.185 9.50003 115.665 8.88003 116.485 7.66003V8.16003C116.485 11.66 114.685 13.44 111.845 13.44C110.825 13.44 109.885 13.26 109.145 12.78L108.385 14.34C109.285 14.9 110.545 15.16 111.865 15.16C115.785 15.16 118.485 12.6 118.485 7.82003C118.485 3.36003 116.365 0.840027 112.605 0.840027ZM112.785 7.88003C110.825 7.88003 109.605 6.82003 109.605 5.18003C109.605 3.52003 110.865 2.46003 112.685 2.46003C114.865 2.46003 116.025 3.72003 116.025 5.16003C116.025 6.70003 114.705 7.88003 112.785 7.88003Z" fill="white"/>
<path d="M131.14 6.88003L134.8 2.36003V1.00003H125.56V2.74003H132.3L128.78 7.06003V8.46003H129.9C132.3 8.46003 133.36 9.42003 133.36 10.9C133.36 12.42 132.16 13.38 130.06 13.38C128.34 13.38 126.78 12.76 125.84 11.88L124.92 13.46C126.1 14.52 128.06 15.16 130.06 15.16C133.62 15.16 135.36 13.24 135.36 10.88C135.36 8.72003 133.94 7.14003 131.14 6.88003Z" fill="white"/>
<path d="M149.406 9.84003H146.746V6.80003H144.866V9.84003H139.486L146.346 1.00003H144.186L137.026 10.16V11.56H144.806V15H146.746V11.56H149.406V9.84003Z" fill="white"/>
<path d="M164.536 7.66003C165.816 7.06003 166.516 6.02003 166.516 4.64003C166.516 2.30003 164.476 0.840027 161.436 0.840027C158.416 0.840027 156.396 2.30003 156.396 4.64003C156.396 6.02003 157.076 7.06003 158.356 7.66003C156.776 8.26003 155.896 9.44003 155.896 11.04C155.896 13.58 158.036 15.16 161.436 15.16C164.856 15.16 167.016 13.58 167.016 11.04C167.016 9.44003 166.136 8.28003 164.536 7.66003ZM161.436 2.46003C163.316 2.46003 164.556 3.32003 164.556 4.72003C164.556 6.10003 163.376 6.96003 161.436 6.96003C159.516 6.96003 158.376 6.10003 158.376 4.72003C158.376 3.32003 159.556 2.46003 161.436 2.46003ZM161.436 13.54C159.216 13.54 157.896 12.56 157.896 10.98C157.896 9.44003 159.216 8.48003 161.436 8.48003C163.656 8.48003 165.016 9.44003 165.016 10.98C165.016 12.56 163.656 13.54 161.436 13.54Z" fill="white"/>
<path d="M181.027 9.84003H178.367V6.80003H176.487V9.84003H171.107L177.967 1.00003H175.807L168.647 10.16V11.56H176.427V15H178.367V11.56H181.027V9.84003Z" fill="white"/>
<path d="M23.308 25.6V34H24.496V26.644H29.368V34H30.544V25.6H23.308Z" fill="white"/>
<path d="M37.7114 27.64H31.9034V28.648H34.2314V34H35.3834V28.648H37.7114V27.64Z" fill="white"/>
<path d="M38.2347 31.204H41.4627V30.208H38.2347V31.204Z" fill="white"/>
<path d="M47.2905 34.096C48.5985 34.096 49.7265 33.64 50.4945 32.776L49.7145 32.02C49.0665 32.704 48.2745 33.028 47.3505 33.028C45.4545 33.028 44.0505 31.66 44.0505 29.8C44.0505 27.94 45.4545 26.572 47.3505 26.572C48.2745 26.572 49.0665 26.884 49.7145 27.568L50.4945 26.812C49.7265 25.948 48.5985 25.504 47.3025 25.504C44.7465 25.504 42.8505 27.316 42.8505 29.8C42.8505 32.284 44.7465 34.096 47.2905 34.096Z" fill="white"/>
<path d="M55.02 27.856C53.952 27.856 53.052 28.324 52.512 29.14C52.632 27.484 53.412 26.668 55.068 26.308L57.744 25.732L57.576 24.676L54.672 25.324C52.476 25.804 51.408 27.232 51.408 29.86C51.408 32.536 52.62 34.096 54.792 34.096C56.736 34.096 58.08 32.824 58.08 30.952C58.08 29.128 56.82 27.856 55.02 27.856ZM54.816 33.136C53.592 33.136 52.716 32.248 52.716 30.988C52.716 29.728 53.568 28.888 54.816 28.888C56.064 28.888 56.904 29.728 56.904 30.988C56.904 32.248 56.052 33.136 54.816 33.136Z" fill="white"/>
<path d="M66.2409 24.2V25.418H68.4529V34H69.8389V24.2H66.2409Z" fill="white"/>
<path d="M75.9865 34.112C78.2685 34.112 79.9765 32.292 79.9765 29.1C79.9765 25.908 78.2685 24.088 75.9865 24.088C73.6905 24.088 71.9825 25.908 71.9825 29.1C71.9825 32.292 73.6905 34.112 75.9865 34.112ZM75.9865 32.866C74.4465 32.866 73.3825 31.606 73.3825 29.1C73.3825 26.594 74.4465 25.334 75.9865 25.334C77.5125 25.334 78.5765 26.594 78.5765 29.1C78.5765 31.606 77.5125 32.866 75.9865 32.866Z" fill="white"/>
<path d="M82.2444 28.428C82.7484 28.428 83.1684 28.022 83.1684 27.462C83.1684 26.902 82.7484 26.51 82.2444 26.51C81.7264 26.51 81.2924 26.902 81.2924 27.462C81.2924 28.022 81.7264 28.428 82.2444 28.428ZM82.2444 34.084C82.7484 34.084 83.1684 33.678 83.1684 33.118C83.1684 32.558 82.7484 32.166 82.2444 32.166C81.7264 32.166 81.2924 32.558 81.2924 33.118C81.2924 33.678 81.7264 34.084 82.2444 34.084Z" fill="white"/>
<path d="M88.4963 34.112C90.7783 34.112 92.4863 32.292 92.4863 29.1C92.4863 25.908 90.7783 24.088 88.4963 24.088C86.2003 24.088 84.4923 25.908 84.4923 29.1C84.4923 32.292 86.2003 34.112 88.4963 34.112ZM88.4963 32.866C86.9563 32.866 85.8923 31.606 85.8923 29.1C85.8923 26.594 86.9563 25.334 88.4963 25.334C90.0223 25.334 91.0863 26.594 91.0863 29.1C91.0863 31.606 90.0223 32.866 88.4963 32.866Z" fill="white"/>
<path d="M97.8342 34.112C100.116 34.112 101.824 32.292 101.824 29.1C101.824 25.908 100.116 24.088 97.8342 24.088C95.5382 24.088 93.8302 25.908 93.8302 29.1C93.8302 32.292 95.5382 34.112 97.8342 34.112ZM97.8342 32.866C96.2942 32.866 95.2302 31.606 95.2302 29.1C95.2302 26.594 96.2942 25.334 97.8342 25.334C99.3602 25.334 100.424 26.594 100.424 29.1C100.424 31.606 99.3602 32.866 97.8342 32.866Z" fill="white"/>
<path d="M107.054 30.738H110.82V29.576H107.054V30.738Z" fill="white"/>
<path d="M115.487 24.2V25.418H117.699V34H119.085V24.2H115.487Z" fill="white"/>
<path d="M124.407 24.088C122.461 24.088 120.949 25.292 120.949 27.182C120.949 28.988 122.349 30.15 124.295 30.15C125.513 30.15 126.549 29.716 127.123 28.862V29.212C127.123 31.662 125.863 32.908 123.875 32.908C123.161 32.908 122.503 32.782 121.985 32.446L121.453 33.538C122.083 33.93 122.965 34.112 123.889 34.112C126.633 34.112 128.523 32.32 128.523 28.974C128.523 25.852 127.039 24.088 124.407 24.088ZM124.533 29.016C123.161 29.016 122.307 28.274 122.307 27.126C122.307 25.964 123.189 25.222 124.463 25.222C125.989 25.222 126.801 26.104 126.801 27.112C126.801 28.19 125.877 29.016 124.533 29.016Z" fill="white"/>
<path d="M130.793 28.428C131.297 28.428 131.717 28.022 131.717 27.462C131.717 26.902 131.297 26.51 130.793 26.51C130.275 26.51 129.841 26.902 129.841 27.462C129.841 28.022 130.275 28.428 130.793 28.428ZM130.793 34.084C131.297 34.084 131.717 33.678 131.717 33.118C131.717 32.558 131.297 32.166 130.793 32.166C130.275 32.166 129.841 32.558 129.841 33.118C129.841 33.678 130.275 34.084 130.793 34.084Z" fill="white"/>
<path d="M137.045 34.112C139.327 34.112 141.035 32.292 141.035 29.1C141.035 25.908 139.327 24.088 137.045 24.088C134.749 24.088 133.041 25.908 133.041 29.1C133.041 32.292 134.749 34.112 137.045 34.112ZM137.045 32.866C135.505 32.866 134.441 31.606 134.441 29.1C134.441 26.594 135.505 25.334 137.045 25.334C138.571 25.334 139.635 26.594 139.635 29.1C139.635 31.606 138.571 32.866 137.045 32.866Z" fill="white"/>
<path d="M146.383 34.112C148.665 34.112 150.373 32.292 150.373 29.1C150.373 25.908 148.665 24.088 146.383 24.088C144.087 24.088 142.379 25.908 142.379 29.1C142.379 32.292 144.087 34.112 146.383 34.112ZM146.383 32.866C144.843 32.866 143.779 31.606 143.779 29.1C143.779 26.594 144.843 25.334 146.383 25.334C147.909 25.334 148.973 26.594 148.973 29.1C148.973 31.606 147.909 32.866 146.383 32.866Z" fill="white"/>
</svg>
