<svg width="29" height="75" viewBox="0 0 29 75" fill="none" xmlns="http://www.w3.org/2000/svg">
<path d="M26.0507 4.70221C23.4984 1.58212 19.6122 0 14.5 0C9.38777 0 5.50162 1.58212 2.94934 4.70221C0.383114 7.83937 0 11.5148 0 13.4265V35.5736C0 37.4853 0.383114 41.1607 2.94934 44.2979C5.50162 47.418 9.38777 49 14.5 49C19.6122 49 23.4984 47.418 26.0507 44.2979C28.6169 41.1607 29 37.4853 29 35.5736V13.4265C29 11.5148 28.6169 7.83937 26.0507 4.70221ZM14.5 17.071C13.4406 17.071 12.5789 16.1728 12.5789 15.0688V10.7783C12.5789 9.67428 13.4406 8.77616 14.5 8.77616C15.5594 8.77616 16.4211 9.67428 16.4211 10.7783V15.0688C16.4211 16.1728 15.5594 17.071 14.5 17.071ZM27.4833 35.5736C27.4833 37.5516 26.8574 47.4194 14.5 47.4194C2.14257 47.4194 1.51668 37.5516 1.51668 35.5736V13.4265C1.51668 11.4898 2.1186 1.99151 13.7417 1.59498V7.28446C12.2098 7.64547 11.0622 9.07427 11.0622 10.7783V15.0688C11.0622 16.7729 12.2098 18.2017 13.7417 18.5627V25.0568C13.7417 25.4934 14.0811 25.8471 14.5 25.8471C14.9189 25.8471 15.2583 25.4934 15.2583 25.0568V18.5627C16.7902 18.2017 17.9378 16.7729 17.9378 15.0688V10.7783C17.9378 9.07427 16.7902 7.64547 15.2583 7.28446V1.59498C26.8815 1.99161 27.4833 11.4898 27.4833 13.4265V35.5736Z" fill="white"/>
<path d="M7 56L14.5 63L22 56" stroke="white" stroke-width="2"/>
<path d="M8 67L14.5 73L21 67" stroke="#6C6C6C" stroke-width="2"/>
</svg>
