<svg width="80" height="80" viewBox="0 0 80 80" fill="none" xmlns="http://www.w3.org/2000/svg">
<path d="M63.1665 49.283C61.5965 46.0097 55.9797 41.4662 50.5532 37.0762C47.5265 34.6295 44.6665 32.3162 42.8432 30.493C42.3865 30.033 41.7032 29.8862 41.0999 30.103C39.9766 30.5097 39.2832 30.823 38.7366 31.0662C37.9033 31.4395 37.6233 31.5662 36.4999 31.6795C36.0032 31.7295 35.5566 31.9962 35.2799 32.4095C32.9232 35.9328 30.4832 35.6328 28.8532 35.0862C28.3332 34.913 28.2399 34.6895 28.1899 34.4762C27.8399 33.013 29.5966 29.6062 31.8732 27.3295C37.2899 21.9095 40.0832 20.5528 45.9832 23.1895C52.6765 26.1828 59.3832 28.5262 59.4499 28.5495C60.3266 28.8528 61.2699 28.3928 61.5732 27.5228C61.8732 26.6528 61.4165 25.7028 60.5465 25.3995C60.4797 25.3762 53.9065 23.0795 47.3465 20.1428C39.7032 16.7261 35.5097 18.9761 29.5197 24.9695C27.2397 27.2495 24.143 31.8628 24.943 35.2462C25.2863 36.6862 26.2997 37.753 27.8063 38.2495C31.583 39.4962 35.0296 38.3028 37.5963 34.8962C38.6563 34.733 39.233 34.493 40.0996 34.103C40.4129 33.963 40.7796 33.7997 41.2663 33.603C43.173 35.393 45.7463 37.4762 48.4563 39.6662C53.3563 43.6295 58.913 48.123 60.163 50.723C60.7797 52.0062 60.1163 52.843 59.6663 53.2262C59.0063 53.793 58.103 53.973 57.613 53.6295C57.073 53.2595 56.3697 53.2362 55.813 53.5695C55.253 53.9028 54.9397 54.5328 55.0097 55.1795C55.123 56.2395 54.153 56.8462 53.733 57.0562C52.6663 57.5962 51.553 57.503 51.1363 57.1162C50.6696 56.683 49.9996 56.5562 49.4063 56.7762C48.813 56.9995 48.3996 57.5462 48.3396 58.1795C48.2396 59.2728 47.4296 60.3228 46.3729 60.7328C45.8629 60.9261 45.1229 61.0428 44.4596 60.4361C44.0463 60.0628 43.4729 59.9194 42.9363 60.0494C42.393 60.1827 41.9563 60.5761 41.7663 61.0994C41.703 61.2661 41.5596 61.6661 39.9996 61.6661C38.8896 61.6661 36.8929 60.9161 35.9163 60.2694C34.7463 59.4994 27.4096 54.0261 21.073 48.7194C20.183 47.9694 18.643 46.3626 17.283 44.9426C16.0763 43.6826 14.973 42.5394 14.4063 42.0594C13.6963 41.4594 12.6463 41.5494 12.0563 42.2561C11.463 42.9594 11.5496 44.0128 12.253 44.6061C12.7697 45.0428 13.7697 46.0994 14.873 47.2494C16.3597 48.8026 17.8963 50.4094 18.9297 51.2761C25.1365 56.4728 32.5965 62.0828 34.083 63.0594C35.3097 63.8661 37.953 64.9994 39.9997 64.9994C41.643 64.9994 42.9065 64.6227 43.783 63.8861C44.9563 64.3428 46.2897 64.3461 47.573 63.8461C49.0897 63.2594 50.3363 62.0761 51.043 60.6428C52.3563 60.9228 53.8597 60.7261 55.2263 60.0395C56.563 59.3662 57.5296 58.3362 58.0096 57.1328C59.3363 57.2028 60.7029 56.7328 61.8329 55.7628C63.7465 54.1262 64.273 51.5797 63.1665 49.283Z" fill="#FFC800"/>
<path d="M33.3332 21.666H18.3332C17.4132 21.666 16.6665 22.4127 16.6665 23.3327C16.6665 24.2527 17.4132 24.9995 18.3332 24.9995H33.3332C34.2532 24.9995 34.9999 24.2527 34.9999 23.3327C34.9999 22.4127 34.2532 21.666 33.3332 21.666Z" fill="#FFC800"/>
<path d="M68.0498 45.7362C67.5331 44.9729 66.4998 44.7629 65.7365 45.2829L60.8632 48.5562C60.0999 49.0695 59.8965 50.1062 60.4099 50.8695C60.7332 51.3462 61.2599 51.6062 61.7967 51.6062C62.1134 51.6062 62.4367 51.5162 62.7234 51.3229L67.5967 48.0497C68.3598 47.5362 68.5631 46.4997 68.0498 45.7362Z" fill="#FFC800"/>
<path d="M57.7033 53.6897C56.51 52.7497 51.1733 47.2865 47.8733 43.8465C47.2366 43.1797 46.18 43.1565 45.5166 43.7965C44.8499 44.4332 44.8299 45.4897 45.4666 46.1532C46.3233 47.0465 53.8799 54.9232 55.6366 56.3099C55.9399 56.5499 56.3066 56.6666 56.6666 56.6666C57.1566 56.6666 57.6466 56.4466 57.9799 56.0299C58.55 55.3097 58.4267 54.2597 57.7033 53.6897Z" fill="#FFC800"/>
<path d="M51.0434 57.0329C49.0467 55.4362 44.0302 50.1062 42.8967 48.8729C42.27 48.1929 41.22 48.1529 40.54 48.7729C39.8633 49.3962 39.8167 50.4529 40.44 51.1296C40.5 51.1929 46.4867 57.6563 48.96 59.6363C49.2667 59.8796 49.6367 59.9996 50 59.9996C50.4867 59.9996 50.9733 59.7829 51.3033 59.3763C51.8769 58.6562 51.7602 57.6062 51.0434 57.0329Z" fill="#FFC800"/>
<path d="M44.4101 60.3895C42.0334 58.3862 37.1701 53.2095 36.2201 52.1928C35.5901 51.5195 34.5334 51.4828 33.8634 52.1128C33.1901 52.7428 33.1567 53.7961 33.7834 54.4695C35.1501 55.9328 39.8034 60.8662 42.2601 62.9395C42.5734 63.2028 42.9534 63.3328 43.3334 63.3328C43.8067 63.3328 44.2801 63.1295 44.6101 62.7395C45.2034 62.0328 45.1134 60.9828 44.4101 60.3895Z" fill="#FFC800"/>
<path d="M19.48 18.7895C16.6233 16.0828 5.2 15.206 1.76672 15.0028C1.29344 14.9795 0.856719 15.136 0.523438 15.4528C0.19 15.766 0 16.206 0 16.666V46.6661C0 47.5861 0.746719 48.3328 1.66672 48.3328H11.6667C12.3867 48.3328 13.0267 47.8695 13.25 47.1828C13.4933 46.4361 19.2367 28.8095 19.9933 20.1428C20.0367 19.636 19.85 19.136 19.48 18.7895ZM10.45 44.9995H3.33328V18.4528C8.69 18.876 14.47 19.796 16.57 20.816C15.6867 28.116 11.69 41.0861 10.45 44.9995Z" fill="#FFC800"/>
<path d="M78.3334 18.333C65.2466 18.333 57.9866 21.683 57.6834 21.823C57.2501 22.0263 56.9266 22.403 56.7934 22.8597C56.6601 23.3164 56.7266 23.8064 56.9766 24.213C59.0366 27.5297 65.4866 45.9497 66.7266 50.443C66.9266 51.1663 67.5834 51.6663 68.3334 51.6663H78.3334C79.2534 51.6663 80.0001 50.9196 80.0001 49.9996V19.9996C80.0001 19.0763 79.2534 18.333 78.3334 18.333ZM76.6668 48.333H69.5801C68.0001 43.1863 63.3334 29.7663 60.7301 24.2197C63.2734 23.3564 68.7368 21.873 76.6668 21.6864V48.333Z" fill="#FFC800"/>
</svg>
