<svg width="80" height="80" viewBox="0 0 80 80" fill="none" xmlns="http://www.w3.org/2000/svg">
<g clip-path="url(#clip0)">
<path d="M1.56266 3.66064H56.1719C57.0348 3.66064 57.7344 4.36018 57.7344 5.22314V37.0314C57.7344 37.8944 57.0348 38.5939 56.1719 38.5939H1.56266C0.699852 38.5939 0.000164032 37.8944 0.000164032 37.0314V5.22314C0.000164032 4.36018 0.699852 3.66064 1.56266 3.66064ZM3.12516 6.78564V13.9183C6.74438 13.2691 9.6061 10.4063 10.2548 6.78564H3.12516ZM54.6094 6.78564H47.4797C48.1283 10.4063 50.9902 13.2691 54.6094 13.9183V6.78564ZM54.6094 35.4689V28.3363C50.99 28.9855 48.1283 31.8483 47.4797 35.4689H54.6094ZM44.3178 35.4689C45.0184 30.1221 49.2638 25.8755 54.6092 25.1745V17.08C49.2638 16.3791 45.0184 12.1324 44.3178 6.78564H35.4016C40.8383 9.27393 44.6245 14.7666 44.6245 21.1272C44.6245 27.488 40.8381 32.9806 35.4016 35.4689H44.3178ZM41.4995 21.1272C41.4995 14.1594 35.8327 8.49064 28.8672 8.49064C21.9017 8.49064 16.2347 14.1594 16.2347 21.1272C16.2347 28.095 21.9016 33.7638 28.8672 33.7638C35.8328 33.7639 41.4995 28.095 41.4995 21.1272ZM3.12516 35.4689H10.2548C9.60625 31.8483 6.74438 28.9855 3.12516 28.3363V35.4689ZM3.125 25.1745C8.47032 25.8755 12.7158 30.1221 13.4164 35.4689H22.3327C16.8961 32.9806 13.1097 27.488 13.1097 21.1272C13.1097 14.7664 16.8961 9.27377 22.3327 6.78564H13.4164C12.7158 12.1324 8.47032 16.3791 3.125 17.08V25.1745Z" fill="#FFC800"/>
<path d="M28.8671 12.186C33.7961 12.186 37.8062 16.197 37.8062 21.1273C37.8062 26.0576 33.7961 30.0685 28.8671 30.0685C23.9382 30.0685 19.9282 26.0574 19.9282 21.1273C19.9282 16.1971 23.9382 12.186 28.8671 12.186ZM28.8671 26.9435C32.073 26.9435 34.6812 24.3345 34.6812 21.1273C34.6812 17.9201 32.073 15.311 28.8671 15.311C25.6611 15.311 23.0532 17.9201 23.0532 21.1273C23.0532 24.3345 25.6611 26.9435 28.8671 26.9435Z" fill="#FFC800"/>
<path d="M50.9982 55.0259C51.0717 54.954 51.1514 54.8884 51.2373 54.8321C51.3217 54.7759 51.4123 54.7274 51.5061 54.6884C51.6014 54.6493 51.6982 54.6196 51.7982 54.5993C51.9998 54.5587 52.2076 54.5587 52.4092 54.5993C52.5092 54.6196 52.6076 54.6493 52.7014 54.6884C52.7951 54.7274 52.8873 54.7759 52.9717 54.8321C53.0561 54.8884 53.1373 54.954 53.2092 55.0259C53.4998 55.3165 53.667 55.7196 53.667 56.1306C53.667 56.2337 53.6561 56.3353 53.6357 56.4368C53.6154 56.5368 53.5857 56.6353 53.5467 56.729C53.5076 56.8228 53.4592 56.9134 53.4029 56.9993C53.3467 57.0837 53.2811 57.1634 53.2092 57.2368C53.1373 57.3087 53.0561 57.3728 52.9717 57.4306C52.8873 57.4868 52.7951 57.5353 52.7014 57.5743C52.6076 57.6134 52.5092 57.6431 52.4092 57.6634C52.3076 57.6837 52.2061 57.6946 52.1045 57.6946C52.0014 57.6946 51.8998 57.6837 51.7982 57.6634C51.6982 57.6431 51.6014 57.6134 51.5061 57.5743C51.4123 57.5353 51.3217 57.4868 51.2373 57.4306C51.1514 57.3728 51.0717 57.3087 50.9982 57.2368C50.9264 57.1634 50.8623 57.0837 50.8045 56.9993C50.7482 56.9134 50.6998 56.8228 50.6607 56.729C50.6217 56.6353 50.592 56.5368 50.5717 56.4368C50.5514 56.3353 50.542 56.2337 50.542 56.1306C50.542 55.7196 50.7076 55.3165 50.9982 55.0259Z" fill="#FFC800"/>
<path d="M1.01078 56.3855C1.01688 56.3698 1.02312 56.3544 1.02969 56.3389C2.58031 52.7095 6.22469 51.3712 10.5417 52.8464L22.7114 56.2129C23.3578 54.0915 25.0786 52.2765 27.5353 51.3645C27.5492 51.3594 27.563 51.3545 27.5769 51.3498L40.8234 46.8526C41.8673 45.4829 45.2625 41.8198 51.713 41.8198C56.1892 41.8198 60.1492 44.92 62.3948 48.279H78.4375C79.3005 48.279 80 48.9786 80 49.8415V71.583C80 72.4459 79.3005 73.1455 78.4375 73.1455H68.1873C67.3244 73.1455 66.6248 72.4459 66.6248 71.583V69.9322H61.6564C60.7934 69.9322 60.0939 69.2326 60.0939 68.3697V67.6989C57.103 67.9469 56.1431 68.5005 53.5547 69.9934C51.5783 71.1334 48.5914 72.8562 43.212 75.2756C43.1894 75.2858 43.1664 75.2955 43.1434 75.3045C42.1208 75.707 40.1209 76.3395 37.6562 76.3394C35.94 76.3392 33.9978 76.0325 32.0045 75.1275L5.45094 65.6173C5.40828 65.602 5.36594 65.5848 5.32453 65.5658C2.83922 64.4222 -0.866249 61.2015 1.01078 56.3855ZM69.7498 70.0208H76.875V51.404H69.7498V70.0208ZM63.2189 66.8073H66.6248V51.404H63.2189V66.8073ZM6.57328 62.7001C6.57328 62.7001 33.2403 72.2565 33.2506 72.2614C37.0055 73.9873 40.5717 72.9526 41.9653 72.41C47.1784 70.0637 49.9606 68.459 51.9931 67.2865C54.8273 65.6517 56.1752 64.8744 60.0938 64.5672V50.483C58.4428 47.7531 55.2078 44.9447 51.7127 44.9447C46.0889 44.9447 43.5278 48.4078 43.1767 48.9255C42.995 49.2533 42.6955 49.517 42.3127 49.647L28.6031 54.3014C26.3314 55.1534 25.1334 57.109 25.6891 59.0637C25.9463 59.9686 26.5403 60.719 27.3617 61.177C28.177 61.6314 29.1194 61.7434 30.0173 61.4937L45.4656 56.5967C46.2889 56.3362 47.1666 56.7914 47.4273 57.614C47.688 58.4367 47.2327 59.3148 46.41 59.5756L30.9375 64.4803C30.9227 64.485 30.9077 64.4895 30.8928 64.4937C30.2897 64.6653 29.6758 64.7501 29.0655 64.7501C27.9483 64.7501 26.8433 64.4655 25.8405 63.9065C24.2898 63.0423 23.1686 61.6259 22.6831 59.9181C22.6353 59.75 22.5945 59.5817 22.5603 59.4136L9.53094 55.8034C7.59624 55.1422 5.05406 54.9094 3.91328 57.5434C2.72453 60.6415 5.79406 62.3295 6.57328 62.7001Z" fill="#FFC800"/>
</g>
<defs>
<clipPath id="clip0">
<rect width="80" height="80" fill="white" transform="matrix(-1 0 0 1 80 0)"/>
</clipPath>
</defs>
</svg>
