<svg width="80" height="80" viewBox="0 0 80 80" fill="none" xmlns="http://www.w3.org/2000/svg">
<g clip-path="url(#clip0)">
<path d="M71.8739 61.7159C71.8678 61.7003 71.8616 61.6848 71.855 61.6695C70.4169 58.3044 67.0441 57.0606 63.0525 58.4239L52.1669 61.4342C51.5375 59.5283 49.9677 57.9064 47.748 57.0826C47.7342 57.0776 47.7205 57.0726 47.7066 57.0679L35.7408 53.0067C34.7448 51.7194 31.6252 48.4253 25.7841 48.4253C21.702 48.4253 18.0909 51.2256 16.025 54.2779H1.5625C0.699531 54.2779 0 54.9775 0 55.8404V75.54C0 76.403 0.699531 77.1025 1.5625 77.1025H10.8527C11.7156 77.1025 12.4152 76.403 12.4152 75.54V74.1909H16.7719C17.6348 74.1909 18.3344 73.4914 18.3344 72.6284V72.1787C20.8741 72.4003 21.7094 72.882 24.0419 74.227C25.8356 75.2614 28.5467 76.8247 33.4289 79.0198C33.4516 79.03 33.4745 79.0397 33.4975 79.0487C34.4345 79.4173 36.2663 79.9964 38.5245 79.9964C40.0964 79.9964 41.8753 79.7156 43.7012 78.888L67.7623 70.273C67.8052 70.2576 67.8473 70.2404 67.8886 70.2214C70.1881 69.1634 73.6148 66.1817 71.8739 61.7159ZM9.29016 73.9773H3.125V57.4028H9.29016V73.9773ZM15.2094 71.0658H12.4152V57.4028H15.2094V71.0658ZM66.64 67.3553L42.5897 75.9664C42.5686 75.9739 42.54 75.9851 42.5192 75.9936C42.4981 76.0022 42.477 76.0112 42.4562 76.0208C39.1067 77.5601 35.9228 76.6386 34.675 76.1534C29.9591 74.0314 27.442 72.58 25.603 71.5195C23.0461 70.0451 21.8141 69.3345 18.3344 69.0472V56.4625C19.8155 54.035 22.6877 51.5501 25.7842 51.5501C31.0945 51.5501 33.3447 55.004 33.4331 55.1434C33.6239 55.4537 33.9172 55.6876 34.262 55.8047L46.68 60.0194C48.6633 60.7637 49.7114 62.4622 49.2297 64.1559C49.0073 64.9381 48.4936 65.5869 47.7833 65.9826C47.0791 66.375 46.265 66.472 45.4891 66.2573L31.4902 61.8211C30.667 61.5603 29.7892 62.0159 29.5286 62.8386C29.2678 63.6612 29.7234 64.5394 30.5461 64.8001L44.5694 69.244C44.5842 69.2487 44.5991 69.2533 44.6141 69.2575C45.1739 69.4167 45.7439 69.4955 46.3105 69.4955C47.3477 69.4955 48.3734 69.2312 49.3044 68.7125C50.7439 67.9105 51.7848 66.5958 52.2355 65.0106C52.2714 64.884 52.3033 64.7575 52.3309 64.6309L64.0627 61.3809C65.757 60.8022 67.9812 60.5936 68.9716 62.8744C69.9966 65.552 67.3325 67.025 66.64 67.3553Z" fill="#FFC800"/>
<path d="M78.4375 5.29525H69.1473C68.2844 5.29525 67.5848 5.99478 67.5848 6.85775V8.20682H63.2281C62.3651 8.20682 61.6656 8.90635 61.6656 9.76932V10.219C59.1259 9.99729 58.2906 9.51572 55.9583 8.17072C54.1645 7.13635 51.4534 5.57307 46.5711 3.37791C46.5484 3.3676 46.5256 3.35807 46.5023 3.349C44.9131 2.72369 40.748 1.49338 36.2994 3.50947L30.0119 5.76072L24.712 0.461035C24.1019 -0.149121 23.1125 -0.149121 22.5023 0.461035L5.10264 17.8606C4.53983 18.4235 4.43186 19.3996 5.10264 20.0704L34.835 49.8028C35.3108 50.2787 36.4248 50.4226 37.0448 49.8028L52.93 33.9178C53.343 33.9534 53.7715 33.9726 54.2158 33.9726C58.298 33.9726 61.9089 31.1723 63.9747 28.1201H78.4375C79.3005 28.1201 80 27.4206 80 26.5576V6.85775C80 5.99478 79.3005 5.29525 78.4375 5.29525ZM23.607 3.77557L27.1683 7.33682C26.1097 7.9915 24.8858 8.34182 23.607 8.34182C22.3281 8.34182 21.1044 7.99166 20.0458 7.33682L23.607 3.77557ZM11.9786 22.5268L8.41733 18.9654L11.9786 15.4042C12.6333 16.4628 12.9836 17.6867 12.9836 18.9654C12.9836 20.2442 12.6334 21.4681 11.9786 22.5268ZM35.94 46.4881L32.3794 42.9274C34.5533 41.5859 37.3264 41.5859 39.5005 42.9274L35.94 46.4881ZM41.7517 40.6765C38.2989 38.1718 33.5811 38.1718 30.1283 40.6765L14.2297 24.7778C15.4498 23.0996 16.1086 21.0838 16.1086 18.9654C16.1086 16.8468 15.45 14.8312 14.2297 13.1531L17.7948 9.58807C19.473 10.8082 21.4886 11.467 23.6072 11.467C25.7258 11.467 27.7414 10.8082 29.4195 9.58807L32.799 12.9676C32.0698 13.0753 31.3587 13.3156 30.6956 13.6851C29.5756 14.3092 28.6969 15.2437 28.1497 16.3743C26.3872 16.7007 24.7555 17.554 23.4755 18.8338C20.0028 22.3067 20.0028 27.9571 23.4756 31.4299C25.2119 33.1662 27.4926 34.0345 29.7736 34.0345C32.0544 34.0345 34.3353 33.1663 36.0717 31.4299C37.2014 30.3003 37.9928 28.9118 38.3892 27.3987L43.6648 29.1892C43.0709 31.9404 43.6792 34.8348 45.32 37.1082L41.7517 40.6765ZM32.252 25.3151C32.2658 25.3201 32.2795 25.3251 32.2934 25.3298L35.4178 26.3903C35.1819 27.4551 34.648 28.4342 33.862 29.2203C31.6076 31.4743 27.9395 31.4746 25.6855 29.2203C23.4311 26.966 23.4311 23.2981 25.6855 21.0437C26.2292 20.4996 26.8709 20.0745 27.5701 19.7862C27.8586 22.1865 29.5869 24.326 32.252 25.3151ZM47.5714 34.8567C46.9683 33.8738 46.627 32.7521 46.5731 31.6073C47.3215 32.1484 48.2362 32.6785 49.3287 33.0993L47.5714 34.8567ZM61.6655 25.9346C60.1845 28.3624 57.3123 30.8473 54.2158 30.8473C53.6364 30.8473 53.0934 30.806 52.5858 30.7326C52.5837 30.7323 52.5817 30.732 52.5797 30.7317C49.2053 30.2415 47.3901 28.3237 46.7919 27.5643C46.76 27.5174 46.6242 27.3398 46.604 27.3103C46.422 26.9849 46.1236 26.7234 45.743 26.5942L33.3198 22.3778C31.3373 21.6337 30.2894 19.936 30.7697 18.2429C30.77 18.2418 30.7703 18.2407 30.7706 18.2396C30.7711 18.2384 30.7714 18.237 30.7717 18.2357C30.995 17.456 31.5078 16.8093 32.2165 16.4145C32.9206 16.0221 33.7345 15.9248 34.5108 16.1399L48.5097 20.576C49.3325 20.8371 50.2106 20.3812 50.4712 19.5585C50.7319 18.7359 50.2764 17.8578 49.4537 17.597L38.3201 14.0688L38.2229 13.9717C38.222 13.9707 38.2211 13.9696 38.22 13.9687L32.4559 8.20463L37.4103 6.43057C37.427 6.42447 37.4476 6.41682 37.4642 6.4101C37.4684 6.40838 37.4765 6.40525 37.4806 6.40354C37.5019 6.39494 37.5228 6.38588 37.5436 6.37635C40.893 4.83697 44.0767 5.75838 45.3247 6.24369C50.0408 8.36572 52.5579 9.81713 54.397 10.8776C56.9539 12.3521 58.1859 13.0626 61.6655 13.3499V25.9346ZM67.5848 24.9948H64.7906V11.3318H67.5848V24.9948ZM76.875 24.9948H70.7098V8.42025H76.875V24.9948Z" fill="#FFC800"/>
</g>
<defs>
<clipPath id="clip0">
<rect width="80" height="80" fill="white"/>
</clipPath>
</defs>
</svg>
