<svg width="80" height="80" viewBox="0 0 80 80" fill="none" xmlns="http://www.w3.org/2000/svg">
<g clip-path="url(#clip0)">
<path d="M20.8766 51.9168C19.7331 51.0133 18.2999 50.5156 16.8411 50.5156C14.8586 50.5156 13.0124 51.3965 11.7759 52.9328C10.6947 54.2776 10.2051 55.9601 10.3981 57.6699C10.5913 59.3835 11.4461 60.9183 12.8047 61.9921C13.9482 62.8959 15.3809 63.3935 16.8394 63.3935C18.8234 63.3935 20.6698 62.5109 21.9054 60.9732C22.9856 59.6306 23.4746 57.95 23.2824 56.241C23.0897 54.5274 22.2354 52.9916 20.8766 51.9168ZM19.6034 59.1226C18.931 59.9599 17.9233 60.4403 16.8394 60.4403C16.0314 60.4403 15.2694 60.1757 14.6364 59.6754C13.9002 59.0935 13.4375 58.2638 13.3329 57.3389C13.229 56.4177 13.4934 55.51 14.0769 54.7844C14.7496 53.9486 15.7572 53.4691 16.8411 53.4691C17.6499 53.4691 18.4121 53.7337 19.0449 54.2338C19.7808 54.8157 20.2433 55.6458 20.3474 56.5712C20.451 57.4918 20.1872 58.3975 19.6034 59.1226Z" fill="#FFC800"/>
<path d="M46.8448 36.7915C47.8189 36.7915 48.7609 36.5781 49.6467 36.156C51.2125 35.4068 52.3887 34.0962 52.958 32.4654C53.5243 30.8449 53.4224 29.1011 52.6718 27.5567C51.5979 25.3431 49.3045 23.9126 46.8293 23.9126C45.8532 23.9126 44.9093 24.1267 44.0237 24.5493C42.4584 25.2961 41.2817 26.6057 40.7114 28.237C40.1441 29.8587 40.2457 31.6027 40.9976 33.1479C42.0749 35.3613 44.37 36.7915 46.8448 36.7915ZM43.499 29.2119C43.8076 28.3295 44.4456 27.6202 45.2952 27.2148C45.7805 26.9835 46.2964 26.8661 46.829 26.8661C48.1805 26.8661 49.4308 27.6431 50.0146 28.8469C50.4195 29.6798 50.4744 30.6187 50.1697 31.4915C49.8613 32.3743 49.2226 33.0846 48.374 33.4907C47.8903 33.7214 47.3757 33.838 46.8445 33.838C45.4918 33.838 44.2391 33.0598 43.6528 31.8555C43.2484 31.0238 43.1938 30.0851 43.499 29.2119Z" fill="#FFC800"/>
<path d="M30.7739 26.3554C31.2489 26.4627 31.735 26.5171 32.2187 26.5171C35.2588 26.5171 37.8561 24.461 38.5354 21.5141C38.9172 19.8432 38.6235 18.123 37.7094 16.6699C36.7877 15.2055 35.3471 14.1875 33.6543 13.8041C33.1773 13.6958 32.6893 13.6406 32.2034 13.6406C29.1653 13.6406 26.5706 15.699 25.8935 18.6453C25.5086 20.315 25.8003 22.0354 26.7146 23.4895C27.6371 24.9559 29.0791 25.9739 30.7739 26.3554ZM28.772 19.3079C29.1389 17.7103 30.5502 16.5944 32.2034 16.5944C32.469 16.5944 32.737 16.6246 33.0006 16.6844C33.9241 16.8936 34.7085 17.4472 35.2096 18.2431C35.7033 19.0275 35.8618 19.9554 35.6565 20.8533C35.2945 22.4238 33.8485 23.5636 32.2184 23.5636C31.9536 23.5636 31.6866 23.5336 31.4237 23.4742C30.5 23.2663 29.7156 22.7132 29.2147 21.9173C28.722 21.1334 28.5647 20.207 28.772 19.3079Z" fill="#FFC800"/>
<path d="M19.0394 30.0395C20.3965 28.9642 21.2498 27.4281 21.4428 25.7143C21.635 24.0058 21.1469 22.3252 20.0662 20.9802C18.8277 19.4446 16.9801 18.564 14.9975 18.564C13.5402 18.564 12.1085 19.0601 10.9648 19.9622C9.60742 21.0343 8.75362 22.5679 8.55992 24.2804C8.36647 25.9912 8.85576 27.6747 9.93846 29.022C11.176 30.5593 13.0239 31.4411 15.0086 31.4411C16.4671 31.4409 17.8988 30.9432 19.0394 30.0395ZM12.2402 27.1704C11.6554 26.4429 11.3908 25.5342 11.4952 24.6117C11.5995 23.688 12.0618 22.8596 12.7952 22.2799C13.428 21.7808 14.1898 21.517 14.9978 21.517C16.0827 21.517 17.0925 21.9969 17.7657 22.8315C18.3478 23.5566 18.6116 24.4631 18.508 25.3838C18.4039 26.3102 17.9412 27.1416 17.2055 27.7244C16.5757 28.2233 15.8159 28.4872 15.0088 28.4872C13.9227 28.4874 12.9136 28.007 12.2402 27.1704Z" fill="#FFC800"/>
<path d="M79.4351 15.5885C79.1799 15.331 78.7246 15.0241 78.0061 15.0241C77.1637 15.0241 74.9257 15.0241 61.3337 26.5899C61.0605 26.8223 60.7849 27.0578 60.5082 27.2951C58.0797 20.9601 53.8129 15.3123 48.3148 11.2271C42.0106 6.54317 34.5038 4.06593 26.6067 4.06396C26.6042 4.06396 26.6025 4.06396 26.6005 4.06396C21.271 4.06396 14.7925 5.92614 9.69259 8.92466C3.44105 12.5998 -0.00123029 17.5149 3.29845e-07 22.7639C0.00196932 29.1011 3.57618 31.7519 6.44819 33.8816C8.79006 35.6185 10.6397 36.9901 10.6407 39.9963C10.6414 43.0022 8.79276 44.3726 6.45213 46.1078C3.5811 48.2363 0.00763016 50.8855 0.00959915 57.2235C0.0110759 62.4718 3.45557 67.3881 9.70834 71.0664C14.812 74.0686 21.2939 75.9347 26.6244 75.9362C26.6281 75.9362 26.6313 75.9362 26.6348 75.9362C36.3086 75.9362 45.4027 72.2023 52.2424 65.4218C58.9951 58.728 62.7507 49.8555 62.8494 40.4007C65.1423 37.7915 67.3635 35.1981 69.3913 32.7543C72.8607 28.5737 75.5284 25.124 77.3204 22.5016C79.6946 19.028 80.7342 16.8976 79.4351 15.5885ZM50.1634 63.3244C43.8801 69.5533 35.5252 72.9827 26.635 72.9827C26.6323 72.9827 26.6283 72.9827 26.6256 72.9827C17.0989 72.98 2.96579 66.3613 2.96308 57.2225C2.9616 52.3721 5.51144 50.4816 8.21117 48.4802C10.7347 46.6091 13.5949 44.4885 13.5939 39.9953C13.5924 35.5028 10.7315 33.381 8.20724 31.5092C5.50628 29.506 2.95496 27.614 2.95348 22.7632C2.95225 17.1513 8.11297 13.2793 11.1895 11.4706C15.7915 8.76493 21.84 7.0172 26.6005 7.0172C26.6023 7.0172 26.6042 7.0172 26.6057 7.0172C33.8641 7.01917 40.762 9.29483 46.5535 13.5976C51.8949 17.5663 55.9722 23.1376 58.1199 29.3615C51.7145 34.9544 44.7782 41.4029 39.6126 46.5853C31.033 47.6958 29.8641 53.4137 29.0096 57.6143C28.2821 61.191 27.8097 62.9202 25.049 63.1417C24.3687 63.1964 23.8147 63.7098 23.7086 64.3839C23.6023 65.0578 23.9717 65.7169 24.6023 65.9781C24.7797 66.0514 29.0022 67.7767 33.9355 67.777C33.9363 67.777 33.9367 67.777 33.9372 67.777C37.3751 67.777 40.3241 66.9436 42.7022 65.3002C45.6325 63.2751 47.6195 60.0645 48.618 55.7588C51.9931 52.3441 55.8496 48.2264 59.663 43.985C58.7854 51.2874 55.49 58.044 50.1634 63.3244ZM45.651 55.4792C44.0861 61.6805 40.1487 64.824 33.937 64.8237C33.937 64.8237 33.936 64.8237 33.9355 64.8237C32.2976 64.8237 30.729 64.6003 29.4103 64.3217C30.9855 62.7152 31.4775 60.2978 31.9035 58.2035C32.715 54.2143 33.4824 50.4391 39.7605 49.5422L45.651 55.4792ZM66.0438 32.1565C60.1898 39.1309 53.1039 46.9631 47.2707 52.918L46.3677 52.0079L42.3832 47.9919C47.6719 42.7273 54.4566 36.4499 60.7866 30.9562C61.5245 30.3158 62.2577 29.6835 62.9803 29.0672C70.3264 22.8021 74.1762 20.0755 76.14 18.889C74.9673 20.8646 72.2658 24.7438 66.0438 32.1565Z" fill="#FFC800"/>
</g>
<defs>
<clipPath id="clip0">
<rect width="80" height="80" fill="white"/>
</clipPath>
</defs>
</svg>
