<svg width="80" height="80" viewBox="0 0 80 80" fill="none" xmlns="http://www.w3.org/2000/svg">
<path d="M57.3913 10.4346H22.6087C10.1426 10.4346 0 20.5772 0 33.0433C0 45.5093 10.1426 55.652 22.6087 55.652H38.2609V67.8259C38.2609 68.5285 38.6835 69.1633 39.3339 69.4328C39.5496 69.5215 39.7757 69.565 40 69.565C40.4522 69.565 40.8974 69.3876 41.2296 69.0554L54.633 55.652H57.3913C69.8574 55.652 80 45.5093 80 33.0433C80 20.5772 69.8574 10.4346 57.3913 10.4346ZM57.3913 52.1737H53.913C53.4504 52.1737 53.0087 52.3563 52.6835 52.6833L41.7391 63.6276V53.9128C41.7391 52.9528 40.9617 52.1737 40 52.1737H22.6087C12.0609 52.1737 3.47826 43.5911 3.47826 33.0433C3.47826 22.4954 12.0609 13.9128 22.6087 13.9128H57.3913C67.9391 13.9128 76.5217 22.4954 76.5217 33.0433C76.5217 43.5911 67.9391 52.1737 57.3913 52.1737Z" fill="#FFC800"/>
<path d="M19.1305 27.8257C16.254 27.8257 13.9131 30.1666 13.9131 33.0431C13.9131 35.9196 16.254 38.2605 19.1305 38.2605C22.007 38.2605 24.3479 35.9196 24.3479 33.0431C24.3479 30.1666 22.007 27.8257 19.1305 27.8257ZM19.1305 34.7822C18.1705 34.7822 17.3913 34.0013 17.3913 33.0431C17.3913 32.0848 18.1705 31.3039 19.1305 31.3039C20.0905 31.3039 20.8696 32.0848 20.8696 33.0431C20.8696 34.0013 20.0905 34.7822 19.1305 34.7822Z" fill="#FFC800"/>
<path d="M60.8697 27.8257C57.9932 27.8257 55.6523 30.1666 55.6523 33.0431C55.6523 35.9196 57.9932 38.2605 60.8697 38.2605C63.7463 38.2605 66.0871 35.9196 66.0871 33.0431C66.0871 30.1666 63.7463 27.8257 60.8697 27.8257ZM60.8697 34.7822C59.9097 34.7822 59.1306 34.0013 59.1306 33.0431C59.1306 32.0848 59.9097 31.3039 60.8697 31.3039C61.8297 31.3039 62.6089 32.0848 62.6089 33.0431C62.6089 34.0013 61.8297 34.7822 60.8697 34.7822Z" fill="#FFC800"/>
<path d="M40.0001 27.8257C37.1236 27.8257 34.7827 30.1666 34.7827 33.0431C34.7827 35.9196 37.1236 38.2605 40.0001 38.2605C42.8766 38.2605 45.2175 35.9196 45.2175 33.0431C45.2175 30.1666 42.8766 27.8257 40.0001 27.8257ZM40.0001 34.7822C39.0401 34.7822 38.261 34.0013 38.261 33.0431C38.261 32.0848 39.0401 31.3039 40.0001 31.3039C40.9601 31.3039 41.7392 32.0848 41.7392 33.0431C41.7392 34.0013 40.9601 34.7822 40.0001 34.7822Z" fill="#FFC800"/>
</svg>
