<svg width="80" height="80" viewBox="0 0 80 80" fill="none" xmlns="http://www.w3.org/2000/svg">
<g clip-path="url(#clip0)">
<path d="M75 16.6665H5C2.24328 16.6665 0 18.9098 0 21.6665V68.3332C0 71.09 2.24328 73.3332 5 73.3332H75C77.7567 73.3332 80 71.09 80 68.3332V21.6665C80 18.9098 77.7567 16.6665 75 16.6665ZM76.6667 68.3331C76.6667 69.2531 75.92 69.9998 75 69.9998H5C4.08 69.9998 3.33328 69.2531 3.33328 68.3331V21.6665C3.33328 20.7465 4.08 19.9998 5 19.9998H75C75.92 19.9998 76.6667 20.7465 76.6667 21.6665V68.3331Z" fill="#FFC800"/>
<path d="M48.3331 6.6665H31.6665C28.9098 6.6665 26.6665 8.90978 26.6665 11.6665V18.3332C26.6665 19.2532 27.4132 19.9999 28.3332 19.9999H51.6665C52.5865 19.9999 53.3332 19.2532 53.3332 18.3332V11.6665C53.3331 8.90978 51.0898 6.6665 48.3331 6.6665ZM49.9998 16.6665H29.9998V11.6665C29.9998 10.7465 30.7465 9.99978 31.6665 9.99978H48.3332C49.2531 9.99978 49.9998 10.7465 49.9998 11.6665V16.6665Z" fill="#FFC800"/>
<path d="M78.3333 36.6665H1.66672C0.746719 36.6665 0 37.4131 0 38.3331C0 39.2531 0.746719 39.9998 1.66672 39.9998H78.3334C79.2534 39.9998 80.0002 39.2531 80.0002 38.3331C80.0002 37.4131 79.2533 36.6665 78.3333 36.6665Z" fill="#FFC800"/>
<path d="M24.9999 36.6665C24.0799 36.6665 23.3332 37.4132 23.3332 38.3332V46.6665H16.6664V38.3332C16.6664 37.4132 15.9197 36.6665 14.9997 36.6665C14.0797 36.6665 13.333 37.4132 13.333 38.3332V48.3332C13.3332 49.2531 14.0799 49.9998 14.9999 49.9998H24.9999C25.9199 49.9998 26.6666 49.2531 26.6666 48.3331V38.3331C26.6666 37.4131 25.9199 36.6665 24.9999 36.6665Z" fill="#FFC800"/>
<path d="M64.9999 36.6665C64.0799 36.6665 63.3332 37.4132 63.3332 38.3332V46.6665H56.6664V38.3332C56.6664 37.4132 55.9197 36.6665 54.9997 36.6665C54.0797 36.6665 53.333 37.4132 53.333 38.3332V48.3332C53.333 49.2532 54.0797 50 54.9997 50H64.9997C65.9197 50 66.6664 49.2532 66.6664 48.3332V38.3332C66.6666 37.4131 65.9199 36.6665 64.9999 36.6665Z" fill="#FFC800"/>
</g>
<defs>
<clipPath id="clip0">
<rect width="80" height="80" fill="white"/>
</clipPath>
</defs>
</svg>
